<svg xmlns="http://www.w3.org/2000/svg" version="1.1" xmlns:xlink="http://www.w3.org/1999/xlink" viewBox="0 0 200 200"><rect width="200" height="200" fill="url('#gradient')"></rect><defs><linearGradient id="gradient" gradientTransform="rotate(45 0.5 0.5)"><stop offset="0%" stop-color="#000000"></stop><stop offset="100%" stop-color="#26a3a3"></stop></linearGradient></defs><g><g fill="#1b3855" transform="matrix(6.781456953642384,0,0,6.781456953642384,2.719293263574315,148.21553471230513)" stroke="#0e5278" stroke-width="0.2"><path d="M9.89-8.57L9.89-6.03L4.50-6.03L4.50-2.64L10.87-2.64L10.87 0L1.07 0L1.07-14.22L10.89-14.22L10.89-11.57L4.50-11.57L4.50-8.57L9.89-8.57ZM12.27-14.22L16.77-14.22L19.94-4.33L23.11-14.22L27.62-14.22L27.62 0L24.18 0L24.18-3.32L24.51-10.12L21.07 0L18.81 0L15.36-10.13L15.69-3.32L15.69 0L12.27 0L12.27-14.22Z"></path></g></g></svg>